<svg width="153" height="40" viewBox="0 0 153 40" fill="none" xmlns="http://www.w3.org/2000/svg">
<g clip-path="url(#clip0_253_36352)">
<path fill-rule="evenodd" clip-rule="evenodd" d="M8.34631 35.9946C9.21885 35.4462 16.774 27.3562 18.0022 26.5677C18.713 26.9554 26.68 34.8902 27.6739 36.0001C28.2107 29.7129 27.9 30.7569 24.2083 27.0628L18.0022 20.9297L8.33594 30.4748L8.34631 35.9946Z" fill="#2EB2B6"/>
<path fill-rule="evenodd" clip-rule="evenodd" d="M15.6094 28.5664L19.708 32.5326L17.3679 34.9065L13.2695 30.9403L15.6094 28.5664Z" fill="#2EB2B6"/>
<path fill-rule="evenodd" clip-rule="evenodd" d="M18.762 1.23828L22.8603 5.20441L20.5203 7.5783L16.4219 3.61217L18.762 1.23828Z" fill="#13A8CE"/>
<path fill-rule="evenodd" clip-rule="evenodd" d="M27.8686 0.00573921C26.996 0.55416 19.4411 8.6439 18.2127 9.43245C17.5018 9.0447 9.53497 1.10993 8.54101 0C8.00441 6.28722 8.31491 5.24341 12.0069 8.9373L18.2127 15.0704L27.879 5.52554L27.8686 0.00573921Z" fill="#13A8CE"/>
<path fill-rule="evenodd" clip-rule="evenodd" d="M36.2359 27.5292C35.6824 26.6645 27.5176 19.1789 26.7216 17.9618C27.1131 17.2574 35.1212 9.36377 36.2414 8.37894C29.8959 7.84734 30.9494 8.15492 27.2213 11.8127L21.0312 17.9618L30.6649 27.5393L36.2359 27.5292Z" fill="#6E74E6"/>
<path fill-rule="evenodd" clip-rule="evenodd" d="M28.7422 20.4465L32.7451 16.3857L35.141 18.7044L31.1381 22.765L28.7422 20.4465Z" fill="#6E74E6"/>
<path fill-rule="evenodd" clip-rule="evenodd" d="M0.00556315 8.18613C0.55907 9.05088 8.72405 16.5364 9.51991 17.7533C9.12857 18.4576 1.12022 26.3513 0 27.3361C6.34552 27.868 5.29202 27.5601 9.02017 23.9023L15.2102 17.7533L5.57677 8.17578L0.00556315 8.18613Z" fill="#6E74E6"/>
<path fill-rule="evenodd" clip-rule="evenodd" d="M7.50037 15.2698L3.49747 19.3307L1.10156 17.0121L5.10447 12.9512L7.50037 15.2698Z" fill="#6E74E6"/>
<path d="M65.2378 22.3919H60.4232L59.055 11.8037L54.5742 22.3919H52.6635L48.3868 11.8037L46.8146 22.3919H42L45.1448 4H49.9314L53.6791 13.8163L57.6401 4H62.4547L65.2378 22.3919ZM84.8665 14.6021C84.8665 15.7051 84.7787 16.6519 84.5978 17.4331C84.3154 18.6418 83.647 19.7495 82.585 20.7467C81.0825 22.1576 79.0735 22.8606 76.5597 22.8606C73.9951 22.8606 71.996 22.1435 70.5578 20.7051C69.797 19.9515 69.2778 19.0052 68.9947 17.8606C68.7956 17.0561 68.6979 15.9671 68.6979 14.6021V4H73.5122V13.9359C73.5122 14.7354 73.5265 15.3285 73.5546 15.7238C73.6424 16.969 74.2176 17.8376 75.2797 18.334C75.7157 18.5407 76.1933 18.6418 76.7224 18.6418C77.9002 18.6418 78.7859 18.2329 79.3846 17.4194C79.8297 16.8174 80.0522 15.6546 80.0522 13.9359V4H84.8665V14.6021ZM99.7558 22.3919H89.1531V4H93.9673V18.4211H99.7558V22.3919ZM113.615 7.97088H109.608V22.3919H104.793V7.97088H100.869V4H113.615V7.97088ZM132.317 4L125.359 13.5547V22.3919H120.545V13.5547L113.837 4H119.594L123.096 9.04592L126.468 4H132.317ZM144.951 7.97088H139.135V11.142H144.423V15.1124H139.135V22.3919H134.321V4H144.951V7.97088ZM153.026 22.3919H148.212V4H153.026V22.3919Z" fill="#2EB2B6"/>
<path d="M150.43 33.8605L151.014 29.7245H151.59L151.486 30.4725C151.579 30.2779 151.692 30.1205 151.826 30.0005C151.962 29.8779 152.108 29.7885 152.266 29.7325C152.426 29.6739 152.583 29.6445 152.738 29.6445C152.802 29.6445 152.863 29.6499 152.922 29.6605C152.98 29.6685 153.026 29.6832 153.058 29.7045L152.974 30.3125C152.934 30.2912 152.88 30.2765 152.814 30.2685C152.75 30.2605 152.696 30.2565 152.654 30.2565C152.47 30.2459 152.288 30.2699 152.11 30.3285C151.934 30.3845 151.782 30.4845 151.654 30.6285C151.528 30.7699 151.448 30.9619 151.414 31.2045L151.038 33.8605H150.43Z" fill="#B0B0B0"/>
<path d="M147.647 33.9405C147.293 33.9405 146.994 33.8605 146.751 33.7005C146.509 33.5379 146.335 33.2979 146.231 32.9805C146.13 32.6632 146.11 32.2725 146.171 31.8085C146.23 31.3765 146.349 30.9979 146.527 30.6725C146.706 30.3472 146.939 30.0952 147.227 29.9165C147.515 29.7352 147.85 29.6445 148.231 29.6445C148.586 29.6445 148.882 29.7272 149.119 29.8925C149.359 30.0552 149.53 30.2979 149.631 30.6205C149.733 30.9405 149.751 31.3365 149.687 31.8085C149.631 32.2299 149.515 32.6005 149.339 32.9205C149.163 33.2405 148.934 33.4912 148.651 33.6725C148.369 33.8512 148.034 33.9405 147.647 33.9405ZM147.723 33.4365C147.963 33.4365 148.177 33.3725 148.363 33.2445C148.553 33.1165 148.71 32.9299 148.835 32.6845C148.961 32.4392 149.046 32.1419 149.091 31.7925C149.131 31.4779 149.127 31.1965 149.079 30.9485C149.034 30.7005 148.937 30.5059 148.787 30.3645C148.638 30.2205 148.429 30.1485 148.159 30.1485C147.914 30.1485 147.695 30.2125 147.503 30.3405C147.314 30.4659 147.158 30.6512 147.035 30.8965C146.913 31.1419 146.827 31.4405 146.779 31.7925C146.737 32.1072 146.739 32.3885 146.787 32.6365C146.835 32.8819 146.935 33.0765 147.087 33.2205C147.239 33.3645 147.451 33.4365 147.723 33.4365Z" fill="#B0B0B0"/>
<path d="M143.631 33.9405C143.359 33.9405 143.115 33.8965 142.899 33.8085C142.683 33.7179 142.514 33.5805 142.391 33.3965C142.268 33.2099 142.208 32.9725 142.211 32.6845H142.775C142.783 32.8499 142.826 32.9899 142.903 33.1045C142.983 33.2192 143.09 33.3072 143.223 33.3685C143.359 33.4272 143.518 33.4565 143.699 33.4565C143.974 33.4565 144.203 33.4005 144.387 33.2885C144.571 33.1739 144.68 32.9992 144.715 32.7645C144.736 32.6019 144.711 32.4712 144.639 32.3725C144.567 32.2739 144.444 32.2019 144.271 32.1565L143.467 31.9285C143.171 31.8459 142.943 31.7219 142.783 31.5565C142.626 31.3885 142.567 31.1552 142.607 30.8565C142.639 30.6192 142.72 30.4099 142.851 30.2285C142.984 30.0472 143.166 29.9045 143.395 29.8005C143.627 29.6965 143.904 29.6445 144.227 29.6445C144.638 29.6445 144.956 29.7419 145.183 29.9365C145.412 30.1312 145.506 30.4219 145.463 30.8085H144.915C144.92 30.5979 144.859 30.4312 144.731 30.3085C144.603 30.1832 144.412 30.1205 144.159 30.1205C143.895 30.1205 143.672 30.1779 143.491 30.2925C143.312 30.4072 143.207 30.5845 143.175 30.8245C143.151 30.9845 143.19 31.1099 143.291 31.2005C143.392 31.2885 143.547 31.3619 143.755 31.4205L144.539 31.6485C144.704 31.6965 144.838 31.7605 144.939 31.8405C145.043 31.9179 145.122 32.0059 145.175 32.1045C145.228 32.2005 145.262 32.3032 145.275 32.4125C145.288 32.5219 145.287 32.6272 145.271 32.7285C145.236 32.9765 145.15 33.1912 145.011 33.3725C144.872 33.5539 144.687 33.6939 144.455 33.7925C144.223 33.8912 143.948 33.9405 143.631 33.9405Z" fill="#B0B0B0"/>
<path d="M140.391 33.8604L140.975 29.7244H141.563L140.983 33.8604H140.391ZM141.091 28.7644L141.183 28.0764H141.819L141.723 28.7644H141.091Z" fill="#B0B0B0"/>
<path d="M137.523 33.8606L136.727 29.7246H137.307L137.891 33.0886H137.963L139.531 29.7246H140.099L138.119 33.8606H137.523Z" fill="#B0B0B0"/>
<path d="M133.402 33.9405C132.898 33.9405 132.522 33.7592 132.274 33.3965C132.026 33.0312 131.949 32.4912 132.042 31.7765C132.128 31.1338 132.33 30.6178 132.65 30.2285C132.97 29.8392 133.397 29.6445 133.93 29.6445C134.128 29.6445 134.297 29.6725 134.438 29.7285C134.582 29.7818 134.701 29.8498 134.794 29.9325C134.89 30.0152 134.965 30.0992 135.018 30.1845C135.074 30.2698 135.113 30.3432 135.134 30.4045L135.466 27.9165H136.078L135.286 33.8605H134.814L134.862 33.0125C134.833 33.0845 134.784 33.1725 134.714 33.2765C134.648 33.3805 134.557 33.4832 134.442 33.5845C134.328 33.6858 134.185 33.7712 134.014 33.8405C133.844 33.9072 133.64 33.9405 133.402 33.9405ZM133.566 33.4445C133.988 33.4445 134.305 33.3112 134.518 33.0445C134.732 32.7752 134.878 32.3392 134.958 31.7365C134.998 31.4032 134.996 31.1178 134.95 30.8805C134.905 30.6432 134.808 30.4618 134.658 30.3365C134.509 30.2085 134.296 30.1445 134.018 30.1445C133.677 30.1445 133.384 30.2725 133.138 30.5285C132.893 30.7845 132.734 31.1872 132.662 31.7365C132.593 32.2698 132.633 32.6885 132.782 32.9925C132.932 33.2938 133.193 33.4445 133.566 33.4445Z" fill="#B0B0B0"/>
<path d="M126.445 33.8604L129.245 28.0764H129.945L131.081 33.8604H130.461L130.145 32.2124H127.861L127.061 33.8604H126.445ZM128.109 31.6204H130.061L129.513 28.7004L128.109 31.6204Z" fill="#B0B0B0"/>
<path d="M120.477 33.8605L121.333 27.9165H121.933L121.369 31.8885L123.593 29.7245H124.301L122.677 31.2805L123.809 33.8605H123.157L122.217 31.7045L121.257 32.6205L121.081 33.8605H120.477Z" fill="#B0B0B0"/>
<path d="M117.864 33.9405C117.515 33.9405 117.219 33.8605 116.976 33.7005C116.733 33.5405 116.56 33.3019 116.456 32.9845C116.352 32.6672 116.332 32.2739 116.396 31.8045C116.46 31.3752 116.583 30.9992 116.764 30.6765C116.945 30.3512 117.18 30.0979 117.468 29.9165C117.759 29.7352 118.096 29.6445 118.48 29.6445C118.749 29.6445 118.985 29.6979 119.188 29.8045C119.393 29.9112 119.553 30.0645 119.668 30.2645C119.783 30.4619 119.84 30.7005 119.84 30.9805H119.288C119.285 30.8259 119.249 30.6872 119.18 30.5645C119.111 30.4392 119.011 30.3405 118.88 30.2685C118.752 30.1965 118.595 30.1605 118.408 30.1605C118.056 30.1605 117.751 30.2952 117.492 30.5645C117.233 30.8312 117.064 31.2432 116.984 31.8005C116.912 32.2992 116.956 32.6992 117.116 33.0005C117.276 33.2992 117.553 33.4485 117.948 33.4485C118.132 33.4485 118.3 33.4125 118.452 33.3405C118.604 33.2659 118.732 33.1672 118.836 33.0445C118.94 32.9192 119.013 32.7819 119.056 32.6325H119.6C119.523 32.9045 119.397 33.1392 119.224 33.3365C119.053 33.5312 118.851 33.6805 118.616 33.7845C118.381 33.8885 118.131 33.9405 117.864 33.9405Z" fill="#B0B0B0"/>
<path d="M113.577 33.9405C113.222 33.9405 112.924 33.8605 112.681 33.7005C112.438 33.5379 112.265 33.2979 112.161 32.9805C112.06 32.6632 112.04 32.2725 112.101 31.8085C112.16 31.3765 112.278 30.9979 112.457 30.6725C112.636 30.3472 112.869 30.0952 113.157 29.9165C113.445 29.7352 113.78 29.6445 114.161 29.6445C114.516 29.6445 114.812 29.7272 115.049 29.8925C115.289 30.0552 115.46 30.2979 115.561 30.6205C115.662 30.9405 115.681 31.3365 115.617 31.8085C115.561 32.2299 115.445 32.6005 115.269 32.9205C115.093 33.2405 114.864 33.4912 114.581 33.6725C114.298 33.8512 113.964 33.9405 113.577 33.9405ZM113.653 33.4365C113.893 33.4365 114.106 33.3725 114.293 33.2445C114.482 33.1165 114.64 32.9299 114.765 32.6845C114.89 32.4392 114.976 32.1419 115.021 31.7925C115.061 31.4779 115.057 31.1965 115.009 30.9485C114.964 30.7005 114.866 30.5059 114.717 30.3645C114.568 30.2205 114.358 30.1485 114.089 30.1485C113.844 30.1485 113.625 30.2125 113.433 30.3405C113.244 30.4659 113.088 30.6512 112.965 30.8965C112.842 31.1419 112.757 31.4405 112.709 31.7925C112.666 32.1072 112.669 32.3885 112.717 32.6365C112.765 32.8819 112.865 33.0765 113.017 33.2205C113.169 33.3645 113.381 33.4365 113.653 33.4365Z" fill="#B0B0B0"/>
<path d="M110.576 33.8765C110.323 33.8765 110.131 33.8391 110 33.7645C109.872 33.6898 109.791 33.5791 109.756 33.4325C109.721 33.2858 109.719 33.1018 109.748 32.8805L110.132 30.1925H109.5L109.572 29.7245H110.212L110.5 28.5325H110.98L110.812 29.7205H111.696L111.624 30.1925H110.74L110.364 32.8325C110.332 33.0698 110.351 33.2205 110.42 33.2845C110.489 33.3485 110.615 33.3805 110.796 33.3805H111.196L111.132 33.8125C111.084 33.8311 111.012 33.8471 110.916 33.8605C110.82 33.8711 110.707 33.8765 110.576 33.8765Z" fill="#B0B0B0"/>
<path d="M106.193 33.9404C105.937 33.9404 105.694 33.9071 105.465 33.8404C105.238 33.7737 105.037 33.6751 104.861 33.5444C104.685 33.4111 104.546 33.2457 104.445 33.0484C104.346 32.8511 104.297 32.6204 104.297 32.3564H104.941C104.96 32.5884 105.029 32.7831 105.149 32.9404C105.269 33.0951 105.425 33.2124 105.617 33.2924C105.812 33.3697 106.028 33.4084 106.265 33.4084C106.537 33.4084 106.784 33.3671 107.005 33.2844C107.226 33.2017 107.408 33.0844 107.549 32.9324C107.69 32.7804 107.774 32.6031 107.801 32.4004C107.825 32.2164 107.809 32.0564 107.753 31.9204C107.7 31.7844 107.608 31.6711 107.477 31.5804C107.349 31.4871 107.184 31.4137 106.981 31.3604L105.921 31.0804C105.529 30.9844 105.236 30.8204 105.041 30.5884C104.846 30.3537 104.774 30.0457 104.825 29.6644C104.868 29.3391 104.988 29.0524 105.185 28.8044C105.382 28.5537 105.636 28.3577 105.945 28.2164C106.254 28.0751 106.596 28.0044 106.969 28.0044C107.385 28.0044 107.726 28.0857 107.993 28.2484C108.262 28.4084 108.457 28.6151 108.577 28.8684C108.7 29.1217 108.746 29.3857 108.717 29.6604H108.077C108.09 29.3831 108.044 29.1631 107.937 29.0004C107.83 28.8377 107.685 28.7217 107.501 28.6524C107.317 28.5831 107.114 28.5484 106.893 28.5484C106.685 28.5484 106.478 28.5884 106.273 28.6684C106.068 28.7457 105.892 28.8631 105.745 29.0204C105.598 29.1777 105.509 29.3751 105.477 29.6124C105.448 29.8311 105.494 30.0097 105.617 30.1484C105.742 30.2844 105.984 30.4031 106.341 30.5044L107.365 30.7804C107.618 30.8417 107.82 30.9297 107.969 31.0444C108.121 31.1591 108.233 31.2911 108.305 31.4404C108.38 31.5871 108.424 31.7417 108.437 31.9044C108.453 32.0671 108.45 32.2284 108.429 32.3884C108.392 32.6737 108.278 32.9337 108.089 33.1684C107.9 33.4031 107.644 33.5911 107.321 33.7324C107.001 33.8711 106.625 33.9404 106.193 33.9404Z" fill="#B0B0B0"/>
<path d="M99.0819 33.9405C98.5779 33.9405 98.2019 33.7592 97.9539 33.3965C97.7059 33.0312 97.6285 32.4912 97.7219 31.7765C97.8072 31.1338 98.0099 30.6178 98.3299 30.2285C98.6499 29.8392 99.0765 29.6445 99.6099 29.6445C99.8072 29.6445 99.9765 29.6725 100.118 29.7285C100.262 29.7818 100.381 29.8498 100.474 29.9325C100.57 30.0152 100.645 30.0992 100.698 30.1845C100.754 30.2698 100.793 30.3432 100.814 30.4045L101.146 27.9165H101.758L100.966 33.8605H100.494L100.542 33.0125C100.513 33.0845 100.463 33.1725 100.394 33.2765C100.327 33.3805 100.237 33.4832 100.122 33.5845C100.007 33.6858 99.8645 33.7712 99.6939 33.8405C99.5232 33.9072 99.3192 33.9405 99.0819 33.9405ZM99.2459 33.4445C99.6672 33.4445 99.9845 33.3112 100.198 33.0445C100.411 32.7752 100.558 32.3392 100.638 31.7365C100.678 31.4032 100.675 31.1178 100.63 30.8805C100.585 30.6432 100.487 30.4618 100.338 30.3365C100.189 30.2085 99.9752 30.1445 99.6979 30.1445C99.3565 30.1445 99.0632 30.2725 98.8179 30.5285C98.5725 30.7845 98.4139 31.1872 98.3419 31.7365C98.2725 32.2698 98.3125 32.6885 98.4619 32.9925C98.6112 33.2938 98.8725 33.4445 99.2459 33.4445Z" fill="#B0B0B0"/>
<path d="M94.9543 33.9405C94.5943 33.9405 94.2902 33.8579 94.0422 33.6925C93.7942 33.5245 93.6156 33.2832 93.5062 32.9685C93.3996 32.6539 93.3783 32.2752 93.4423 31.8325C93.5063 31.3925 93.6303 31.0085 93.8143 30.6805C94.0009 30.3499 94.2382 30.0952 94.5262 29.9165C94.8169 29.7352 95.1489 29.6445 95.5223 29.6445C95.8823 29.6445 96.1756 29.7272 96.4022 29.8925C96.6289 30.0552 96.7849 30.2885 96.8703 30.5925C96.9583 30.8965 96.9716 31.2592 96.9102 31.6805L96.8742 31.9365H94.0422C94.0022 32.2139 94.0089 32.4659 94.0622 32.6925C94.1156 32.9192 94.2209 33.1005 94.3783 33.2365C94.5356 33.3725 94.7489 33.4405 95.0183 33.4405C95.2823 33.4405 95.5183 33.3752 95.7263 33.2445C95.9343 33.1112 96.0796 32.9232 96.1623 32.6805H96.7383C96.6503 32.9579 96.5129 33.1899 96.3262 33.3765C96.1396 33.5632 95.9262 33.7045 95.6862 33.8005C95.4462 33.8939 95.2023 33.9405 94.9543 33.9405ZM94.1063 31.4925H96.3503C96.3903 31.2365 96.3849 31.0059 96.3343 30.8005C96.2836 30.5952 96.1849 30.4325 96.0383 30.3125C95.8916 30.1925 95.6943 30.1325 95.4463 30.1325C95.1823 30.1325 94.9556 30.2005 94.7663 30.3365C94.5796 30.4699 94.4302 30.6405 94.3182 30.8485C94.2089 31.0565 94.1383 31.2712 94.1063 31.4925Z" fill="#B0B0B0"/>
<path d="M90.4844 33.8605L91.0684 29.7245H91.6444L91.5404 30.4725C91.6337 30.2779 91.747 30.1205 91.8804 30.0005C92.0164 29.8779 92.163 29.7885 92.3204 29.7325C92.4804 29.6739 92.6377 29.6445 92.7924 29.6445C92.8564 29.6445 92.9177 29.6499 92.9764 29.6605C93.035 29.6685 93.0804 29.6832 93.1124 29.7045L93.0284 30.3125C92.9884 30.2912 92.935 30.2765 92.8684 30.2685C92.8044 30.2605 92.751 30.2565 92.7084 30.2565C92.5244 30.2459 92.343 30.2699 92.1644 30.3285C91.9884 30.3845 91.8364 30.4845 91.7084 30.6285C91.583 30.7699 91.503 30.9619 91.4684 31.2045L91.0924 33.8605H90.4844Z" fill="#B0B0B0"/>
<path d="M87.7589 33.9405C87.3989 33.9405 87.0949 33.8579 86.8469 33.6925C86.5989 33.5245 86.4203 33.2832 86.3109 32.9685C86.2043 32.6539 86.1829 32.2752 86.2469 31.8325C86.3109 31.3925 86.4349 31.0085 86.6189 30.6805C86.8056 30.3499 87.0429 30.0952 87.3309 29.9165C87.6216 29.7352 87.9536 29.6445 88.3269 29.6445C88.6869 29.6445 88.9803 29.7272 89.2069 29.8925C89.4336 30.0552 89.5896 30.2885 89.6749 30.5925C89.7629 30.8965 89.7763 31.2592 89.7149 31.6805L89.6789 31.9365H86.8469C86.8069 32.2139 86.8136 32.4659 86.8669 32.6925C86.9203 32.9192 87.0256 33.1005 87.1829 33.2365C87.3403 33.3725 87.5536 33.4405 87.8229 33.4405C88.0869 33.4405 88.3229 33.3752 88.5309 33.2445C88.7389 33.1112 88.8843 32.9232 88.9669 32.6805H89.5429C89.4549 32.9579 89.3176 33.1899 89.1309 33.3765C88.9443 33.5632 88.7309 33.7045 88.4909 33.8005C88.2509 33.8939 88.0069 33.9405 87.7589 33.9405ZM86.9109 31.4925H89.1549C89.1949 31.2365 89.1896 31.0059 89.1389 30.8005C89.0883 30.5952 88.9896 30.4325 88.8429 30.3125C88.6963 30.1925 88.4989 30.1325 88.2509 30.1325C87.9869 30.1325 87.7603 30.2005 87.5709 30.3365C87.3843 30.4699 87.2349 30.6405 87.1229 30.8485C87.0136 31.0565 86.9429 31.2712 86.9109 31.4925Z" fill="#B0B0B0"/>
<path d="M84.6854 33.8765C84.432 33.8765 84.24 33.8391 84.1094 33.7645C83.9814 33.6898 83.9 33.5791 83.8654 33.4325C83.8307 33.2858 83.828 33.1018 83.8574 32.8805L84.2414 30.1925H83.6094L83.6814 29.7245H84.3214L84.6094 28.5325H85.0894L84.9214 29.7205H85.8054L85.7334 30.1925H84.8494L84.4734 32.8325C84.4414 33.0698 84.46 33.2205 84.5294 33.2845C84.5987 33.3485 84.724 33.3805 84.9054 33.3805H85.3054L85.2414 33.8125C85.1934 33.8311 85.1214 33.8471 85.0254 33.8605C84.9294 33.8711 84.816 33.8765 84.6854 33.8765Z" fill="#B0B0B0"/>
<path d="M80.9982 33.9405C80.7262 33.9405 80.4822 33.8965 80.2662 33.8085C80.0502 33.7179 79.8809 33.5805 79.7582 33.3965C79.6355 33.2099 79.5755 32.9725 79.5782 32.6845H80.1422C80.1502 32.8499 80.1929 32.9899 80.2702 33.1045C80.3502 33.2192 80.4569 33.3072 80.5902 33.3685C80.7262 33.4272 80.8849 33.4565 81.0662 33.4565C81.3409 33.4565 81.5702 33.4005 81.7542 33.2885C81.9382 33.1739 82.0475 32.9992 82.0822 32.7645C82.1035 32.6019 82.0782 32.4712 82.0062 32.3725C81.9342 32.2739 81.8115 32.2019 81.6382 32.1565L80.8342 31.9285C80.5382 31.8459 80.3102 31.7219 80.1502 31.5565C79.9929 31.3885 79.9342 31.1552 79.9742 30.8565C80.0062 30.6192 80.0875 30.4099 80.2182 30.2285C80.3515 30.0472 80.5329 29.9045 80.7622 29.8005C80.9942 29.6965 81.2715 29.6445 81.5942 29.6445C82.0049 29.6445 82.3235 29.7419 82.5502 29.9365C82.7795 30.1312 82.8729 30.4219 82.8302 30.8085H82.2822C82.2875 30.5979 82.2262 30.4312 82.0982 30.3085C81.9702 30.1832 81.7795 30.1205 81.5262 30.1205C81.2622 30.1205 81.0395 30.1779 80.8582 30.2925C80.6795 30.4072 80.5742 30.5845 80.5422 30.8245C80.5182 30.9845 80.5569 31.1099 80.6582 31.2005C80.7595 31.2885 80.9142 31.3619 81.1222 31.4205L81.9062 31.6485C82.0715 31.6965 82.2049 31.7605 82.3062 31.8405C82.4102 31.9179 82.4889 32.0059 82.5422 32.1045C82.5955 32.2005 82.6289 32.3032 82.6422 32.4125C82.6555 32.5219 82.6542 32.6272 82.6382 32.7285C82.6035 32.9765 82.5169 33.1912 82.3782 33.3725C82.2395 33.5539 82.0542 33.6939 81.8222 33.7925C81.5902 33.8912 81.3155 33.9405 80.9982 33.9405Z" fill="#B0B0B0"/>
<path d="M77.7578 33.8604L78.3418 29.7244H78.9298L78.3498 33.8604H77.7578ZM78.4578 28.7644L78.5498 28.0764H79.1858L79.0898 28.7644H78.4578Z" fill="#B0B0B0"/>
<path d="M74.4573 35.2286C73.86 35.2286 73.4026 35.1313 73.0853 34.9366C72.7706 34.7446 72.6373 34.4646 72.6853 34.0966C72.7066 33.9499 72.756 33.8246 72.8333 33.7206C72.9106 33.6139 72.9973 33.5246 73.0933 33.4526C73.192 33.3806 73.2826 33.3233 73.3653 33.2806C73.4506 33.2353 73.508 33.2019 73.5373 33.1806C73.5 33.1539 73.4533 33.1206 73.3973 33.0806C73.344 33.0406 73.2973 32.9886 73.2573 32.9246C73.22 32.8579 73.2093 32.7726 73.2253 32.6686C73.2386 32.5513 73.3066 32.4419 73.4293 32.3406C73.552 32.2393 73.7306 32.1593 73.9653 32.1006C73.76 31.9806 73.6066 31.8206 73.5053 31.6206C73.404 31.4179 73.3693 31.1939 73.4013 30.9486C73.436 30.6926 73.528 30.4673 73.6773 30.2726C73.8266 30.0779 74.0306 29.9273 74.2893 29.8206C74.548 29.7139 74.8586 29.6606 75.2213 29.6606C75.4773 29.6606 75.6866 29.6926 75.8493 29.7566C76.0146 29.8206 76.1626 29.9113 76.2933 30.0286C76.336 30.0099 76.4026 29.9819 76.4933 29.9446C76.5866 29.9073 76.6866 29.8659 76.7933 29.8206C76.9026 29.7753 77.0053 29.7326 77.1013 29.6926C77.2 29.6526 77.2733 29.6219 77.3213 29.6006L77.2413 30.2286L76.5293 30.3846C76.5986 30.5793 76.6213 30.7819 76.5973 30.9926C76.5653 31.2326 76.4773 31.4486 76.3333 31.6406C76.192 31.8326 75.9973 31.9846 75.7493 32.0966C75.5013 32.2059 75.2 32.2606 74.8453 32.2606C74.816 32.2606 74.7813 32.2606 74.7413 32.2606C74.7013 32.2579 74.6706 32.2566 74.6493 32.2566C74.3453 32.2619 74.1333 32.2939 74.0133 32.3526C73.8933 32.4113 73.8293 32.4766 73.8213 32.5486C73.816 32.6313 73.8666 32.6913 73.9733 32.7286C74.08 32.7633 74.2653 32.7913 74.5293 32.8126C74.6333 32.8206 74.7573 32.8286 74.9013 32.8366C75.0453 32.8446 75.204 32.8553 75.3773 32.8686C75.772 32.8926 76.0666 33.0019 76.2613 33.1966C76.4586 33.3886 76.5346 33.6526 76.4893 33.9886C76.4413 34.3566 76.2493 34.6553 75.9133 34.8846C75.5773 35.1139 75.092 35.2286 74.4573 35.2286ZM74.5893 34.8006C74.968 34.8006 75.2706 34.7353 75.4973 34.6046C75.724 34.4766 75.8546 34.2833 75.8893 34.0246C75.9106 33.8539 75.8693 33.7139 75.7653 33.6046C75.6613 33.4953 75.4853 33.4326 75.2373 33.4166L74.1053 33.3406C74.0146 33.3326 73.908 33.3606 73.7853 33.4246C73.6653 33.4859 73.5573 33.5726 73.4613 33.6846C73.368 33.7939 73.312 33.9206 73.2933 34.0646C73.264 34.2913 73.3533 34.4699 73.5613 34.6006C73.772 34.7339 74.1146 34.8006 74.5893 34.8006ZM74.8853 31.8366C75.1893 31.8366 75.444 31.7633 75.6493 31.6166C75.8573 31.4673 75.98 31.2459 76.0173 30.9526C76.0573 30.6619 75.9973 30.4433 75.8373 30.2966C75.6773 30.1473 75.4493 30.0726 75.1533 30.0726C74.8466 30.0726 74.588 30.1513 74.3773 30.3086C74.1666 30.4659 74.0413 30.6953 74.0013 30.9966C73.964 31.2659 74.0226 31.4739 74.1773 31.6206C74.332 31.7646 74.568 31.8366 74.8853 31.8366Z" fill="#B0B0B0"/>
<path d="M70.3214 33.9405C69.9614 33.9405 69.6574 33.8579 69.4094 33.6925C69.1614 33.5245 68.9828 33.2832 68.8734 32.9685C68.7668 32.6539 68.7454 32.2752 68.8094 31.8325C68.8734 31.3925 68.9974 31.0085 69.1814 30.6805C69.3681 30.3499 69.6054 30.0952 69.8934 29.9165C70.1841 29.7352 70.5161 29.6445 70.8894 29.6445C71.2494 29.6445 71.5428 29.7272 71.7694 29.8925C71.9961 30.0552 72.1521 30.2885 72.2374 30.5925C72.3254 30.8965 72.3388 31.2592 72.2774 31.6805L72.2414 31.9365H69.4094C69.3694 32.2139 69.3761 32.4659 69.4294 32.6925C69.4828 32.9192 69.5881 33.1005 69.7454 33.2365C69.9028 33.3725 70.1161 33.4405 70.3854 33.4405C70.6494 33.4405 70.8854 33.3752 71.0934 33.2445C71.3014 33.1112 71.4468 32.9232 71.5294 32.6805H72.1054C72.0174 32.9579 71.8801 33.1899 71.6934 33.3765C71.5068 33.5632 71.2934 33.7045 71.0534 33.8005C70.8134 33.8939 70.5694 33.9405 70.3214 33.9405ZM69.4734 31.4925H71.7174C71.7574 31.2365 71.7521 31.0059 71.7014 30.8005C71.6508 30.5952 71.5521 30.4325 71.4054 30.3125C71.2588 30.1925 71.0614 30.1325 70.8134 30.1325C70.5494 30.1325 70.3228 30.2005 70.1334 30.3365C69.9468 30.4699 69.7974 30.6405 69.6854 30.8485C69.5761 31.0565 69.5054 31.2712 69.4734 31.4925Z" fill="#B0B0B0"/>
<path d="M63.8672 33.8604L64.6992 28.0764H66.7552C67.1365 28.0764 67.4485 28.1377 67.6912 28.2604C67.9339 28.3804 68.1045 28.5551 68.2032 28.7844C68.3019 29.0137 68.3285 29.2911 68.2832 29.6164C68.2379 29.9311 68.1459 30.1937 68.0072 30.4044C67.8685 30.6124 67.7072 30.7791 67.5232 30.9044C67.3419 31.0271 67.1592 31.1191 66.9752 31.1804L67.6712 33.8604H67.0312L66.3792 31.2964H64.8392L64.4712 33.8604H63.8672ZM64.9152 30.7604H66.1432C66.4312 30.7604 66.6819 30.7217 66.8952 30.6444C67.1085 30.5644 67.2792 30.4431 67.4072 30.2804C67.5352 30.1177 67.6165 29.9111 67.6512 29.6604C67.7019 29.3004 67.6365 29.0351 67.4552 28.8644C67.2765 28.6911 67.0019 28.6044 66.6312 28.6044H65.2232L64.9152 30.7604Z" fill="#B0B0B0"/>
<path d="M59.6758 33.8604L60.5038 28.0764H61.1078L60.2838 33.8604H59.6758Z" fill="#B0B0B0"/>
<path d="M54.5391 33.8604L55.3711 28.0764H57.0591C57.7071 28.0764 58.1831 28.2071 58.4871 28.4684C58.7911 28.7271 58.9071 29.1017 58.8351 29.5924C58.7897 29.9017 58.6751 30.1671 58.4911 30.3884C58.3097 30.6071 58.0204 30.7831 57.6231 30.9164C57.8257 30.9617 57.9937 31.0284 58.1271 31.1164C58.2631 31.2017 58.3671 31.3057 58.4391 31.4284C58.5137 31.5484 58.5617 31.6844 58.5831 31.8364C58.6044 31.9857 58.6017 32.1471 58.5751 32.3204C58.5004 32.8377 58.2711 33.2244 57.8871 33.4804C57.5031 33.7337 56.9711 33.8604 56.2911 33.8604H54.5391ZM55.2231 33.3204H56.3391C56.8217 33.3204 57.2031 33.2377 57.4831 33.0724C57.7631 32.9044 57.9284 32.6417 57.9791 32.2844C58.0137 32.0257 57.9804 31.8177 57.8791 31.6604C57.7777 31.5004 57.6271 31.3857 57.4271 31.3164C57.2297 31.2444 57.0031 31.2084 56.7471 31.2084H55.5271L55.2231 33.3204ZM55.5991 30.6604H56.8071C56.9537 30.6604 57.1044 30.6457 57.2591 30.6164C57.4164 30.5844 57.5631 30.5311 57.6991 30.4564C57.8377 30.3791 57.9551 30.2751 58.0511 30.1444C58.1471 30.0111 58.2097 29.8457 58.2391 29.6484C58.2924 29.2884 58.2031 29.0257 57.9711 28.8604C57.7417 28.6924 57.4204 28.6084 57.0071 28.6084H55.8951L55.5991 30.6604Z" fill="#B0B0B0"/>
<path d="M49.7344 33.8604L50.5664 28.0764H53.9184L53.8344 28.6364H51.0864L50.7984 30.6604H53.2904L53.2144 31.2204H50.7184L50.4224 33.2844L53.2544 33.2884L53.1664 33.8604H49.7344Z" fill="#B0B0B0"/>
<path d="M46.4116 33.9404C46.1556 33.9404 45.913 33.9071 45.6836 33.8404C45.457 33.7737 45.2556 33.6751 45.0796 33.5444C44.9036 33.4111 44.765 33.2457 44.6636 33.0484C44.565 32.8511 44.5156 32.6204 44.5156 32.3564H45.1596C45.1783 32.5884 45.2476 32.7831 45.3676 32.9404C45.4876 33.0951 45.6436 33.2124 45.8356 33.2924C46.0303 33.3697 46.2463 33.4084 46.4836 33.4084C46.7556 33.4084 47.0023 33.3671 47.2236 33.2844C47.445 33.2017 47.6263 33.0844 47.7676 32.9324C47.909 32.7804 47.993 32.6031 48.0196 32.4004C48.0436 32.2164 48.0276 32.0564 47.9716 31.9204C47.9183 31.7844 47.8263 31.6711 47.6956 31.5804C47.5676 31.4871 47.4023 31.4137 47.1996 31.3604L46.1396 31.0804C45.7476 30.9844 45.4543 30.8204 45.2596 30.5884C45.065 30.3537 44.993 30.0457 45.0436 29.6644C45.0863 29.3391 45.2063 29.0524 45.4036 28.8044C45.601 28.5537 45.8543 28.3577 46.1636 28.2164C46.473 28.0751 46.8143 28.0044 47.1876 28.0044C47.6036 28.0044 47.945 28.0857 48.2116 28.2484C48.481 28.4084 48.6756 28.6151 48.7956 28.8684C48.9183 29.1217 48.965 29.3857 48.9356 29.6604H48.2956C48.309 29.3831 48.2623 29.1631 48.1556 29.0004C48.049 28.8377 47.9036 28.7217 47.7196 28.6524C47.5356 28.5831 47.333 28.5484 47.1116 28.5484C46.9036 28.5484 46.697 28.5884 46.4916 28.6684C46.2863 28.7457 46.1103 28.8631 45.9636 29.0204C45.817 29.1777 45.7276 29.3751 45.6956 29.6124C45.6663 29.8311 45.713 30.0097 45.8356 30.1484C45.961 30.2844 46.2023 30.4031 46.5596 30.5044L47.5836 30.7804C47.837 30.8417 48.0383 30.9297 48.1876 31.0444C48.3396 31.1591 48.4516 31.2911 48.5236 31.4404C48.5983 31.5871 48.6423 31.7417 48.6556 31.9044C48.6716 32.0671 48.669 32.2284 48.6476 32.3884C48.6103 32.6737 48.497 32.9337 48.3076 33.1684C48.1183 33.4031 47.8623 33.5911 47.5396 33.7324C47.2196 33.8711 46.8436 33.9404 46.4116 33.9404Z" fill="#B0B0B0"/>
</g>
<defs>
<clipPath id="clip0_253_36352">
<rect width="153" height="40" fill="white"/>
</clipPath>
</defs>
</svg>
